<svg width="100" height="100" viewBox="0 0 100 100" fill="none" xmlns="http://www.w3.org/2000/svg">
<rect width="100" height="100" fill="white"/>
<path d="M49.5 50C58.8109 50 66.3571 42.3898 66.3571 33C66.3571 23.6102 58.8109 16 49.5 16C40.1891 16 32.6429 23.6102 32.6429 33C32.6429 42.3898 40.1891 50 49.5 50ZM61.3 54.25H59.1007C56.177 55.6047 52.9241 56.375 49.5 56.375C46.0759 56.375 42.8362 55.6047 39.8993 54.25H37.7C27.9281 54.25 20 62.2453 20 72.1V77.625C20 81.1445 22.8315 84 26.3214 84H72.6786C76.1685 84 79 81.1445 79 77.625V72.1C79 62.2453 71.0719 54.25 61.3 54.25Z" fill="#E70033"/>
</svg>
